grf.mot
version=1
nRows=24
nColumns=19
inDegrees=yes
endheader
time	ground_force_vx	ground_force_vy	ground_force_vz	ground_force_px	ground_force_py	ground_force_pz	1_ground_force_vx	1_ground_force_vy	1_ground_force_vz	1_ground_force_px	1_ground_force_py	1_ground_force_pz	ground_torque_x	ground_torque_y	ground_torque_z	1_ground_torque_x	1_ground_torque_y	1_ground_torque_z	
2.48154000000000	29.77240000000000	507.43099999999998	-37.00940000000000	-0.14432100000000	-0.01262650000000	0.08108990000000	0.00000000000000	0.00000000000000	0.00000000000000	0.00000000000000	0.00000000000000	0.00000000000000	0.00000000000000	0.86056900000000	0.00000000000000	0.00000000000000	0.00000000000000	0.00000000000000	
2.48320000000000	30.28640000000000	509.56700000000001	-36.81220000000000	-0.14733800000000	-0.01289040000000	0.08118940000000	0.00000000000000	0.00000000000000	0.00000000000000	0.00000000000000	0.00000000000000	0.00000000000000	0.00000000000000	0.89365200000000	0.00000000000000	0.00000000000000	0.00000000000000	0.00000000000000	
2.48487000000000	30.80030000000000	511.79700000000003	-36.62880000000000	-0.15040300000000	-0.01315860000000	0.08129880000000	0.00000000000000	0.00000000000000	0.00000000000000	0.00000000000000	0.00000000000000	0.00000000000000	0.00000000000000	0.92438200000000	0.00000000000000	0.00000000000000	0.00000000000000	0.00000000000000	
2.48654000000000	31.31360000000000	514.11800000000005	-36.45990000000000	-0.15351400000000	-0.01343070000000	0.08141770000000	0.00000000000000	0.00000000000000	0.00000000000000	0.00000000000000	0.00000000000000	0.00000000000000	0.00000000000000	0.95277900000000	0.00000000000000	0.00000000000000	0.00000000000000	0.00000000000000	
2.48820000000000	31.82590000000000	516.52800000000002	-36.30610000000000	-0.15666400000000	-0.01370630000000	0.08154580000000	0.00000000000000	0.00000000000000	0.00000000000000	0.00000000000000	0.00000000000000	0.00000000000000	0.00000000000000	0.97886700000000	0.00000000000000	0.00000000000000	0.00000000000000	0.00000000000000	
2.48987000000000	32.33660000000000	519.02400000000000	-36.16780000000000	-0.15984900000000	-0.01398500000000	0.08168260000000	0.00000000000000	0.00000000000000	0.00000000000000	0.00000000000000	0.00000000000000	0.00000000000000	0.00000000000000	1.00268000000000	0.00000000000000	0.00000000000000	0.00000000000000	0.00000000000000	
2.49154000000000	32.84530000000000	521.60400000000004	-36.04560000000000	-0.16306500000000	-0.01426640000000	0.08182770000000	0.00000000000000	0.00000000000000	0.00000000000000	0.00000000000000	0.00000000000000	0.00000000000000	0.00000000000000	1.02425000000000	0.00000000000000	0.00000000000000	0.00000000000000	0.00000000000000	
2.49320000000000	33.35150000000000	524.26599999999996	-35.93990000000000	-0.16630600000000	-0.01454990000000	0.08198080000000	0.00000000000000	0.00000000000000	0.00000000000000	0.00000000000000	0.00000000000000	0.00000000000000	0.00000000000000	1.04362000000000	0.00000000000000	0.00000000000000	0.00000000000000	0.00000000000000	
2.49487000000000	33.85470000000000	527.00699999999995	-35.85140000000000	-0.16956700000000	-0.01483520000000	0.08214130000000	0.00000000000000	0.00000000000000	0.00000000000000	0.00000000000000	0.00000000000000	0.00000000000000	0.00000000000000	1.06084000000000	0.00000000000000	0.00000000000000	0.00000000000000	0.00000000000000	
2.49654000000000	34.35440000000000	529.82700000000000	-35.78030000000000	-0.17284100000000	-0.01512160000000	0.08230860000000	0.00000000000000	0.00000000000000	0.00000000000000	0.00000000000000	0.00000000000000	0.00000000000000	0.00000000000000	1.07596000000000	0.00000000000000	0.00000000000000	0.00000000000000	0.00000000000000	
2.49820000000000	34.85020000000000	532.72199999999998	-35.72710000000000	-0.17612300000000	-0.01540880000000	0.08248240000000	0.00000000000000	0.00000000000000	0.00000000000000	0.00000000000000	0.00000000000000	0.00000000000000	0.00000000000000	1.08905000000000	0.00000000000000	0.00000000000000	0.00000000000000	0.00000000000000	
2.49987000000000	35.34150000000000	535.69200000000001	-35.69230000000000	-0.17940600000000	-0.01569600000000	0.08266200000000	0.00000000000000	0.00000000000000	0.00000000000000	0.00000000000000	0.00000000000000	0.00000000000000	0.00000000000000	1.10016000000000	0.00000000000000	0.00000000000000	0.00000000000000	0.00000000000000	
2.50154000000000	35.82780000000000	538.73400000000004	-35.67610000000000	-0.18268500000000	-0.01598290000000	0.08284680000000	0.00000000000000	0.00000000000000	0.00000000000000	0.00000000000000	0.00000000000000	0.00000000000000	0.00000000000000	1.10935000000000	0.00000000000000	0.00000000000000	0.00000000000000	0.00000000000000	
2.50320000000000	36.30890000000000	541.84799999999996	-35.67900000000000	-0.18595200000000	-0.01626870000000	0.08303630000000	0.00000000000000	0.00000000000000	0.00000000000000	0.00000000000000	0.00000000000000	0.00000000000000	0.00000000000000	1.11671000000000	0.00000000000000	0.00000000000000	0.00000000000000	0.00000000000000	
2.50487000000000	36.78410000000000	545.03200000000004	-35.70110000000000	-0.18920100000000	-0.01655290000000	0.08322980000000	0.00000000000000	0.00000000000000	0.00000000000000	0.00000000000000	0.00000000000000	0.00000000000000	0.00000000000000	1.12230000000000	0.00000000000000	0.00000000000000	0.00000000000000	0.00000000000000	
2.50654000000000	37.25320000000000	548.28599999999994	-35.74280000000000	-0.19242500000000	-0.01683500000000	0.08342670000000	0.00000000000000	0.00000000000000	0.00000000000000	0.00000000000000	0.00000000000000	0.00000000000000	0.00000000000000	1.12620000000000	0.00000000000000	0.00000000000000	0.00000000000000	0.00000000000000	
2.50820000000000	37.71570000000000	551.60799999999995	-35.80440000000000	-0.19561700000000	-0.01711430000000	0.08362630000000	0.00000000000000	0.00000000000000	0.00000000000000	0.00000000000000	0.00000000000000	0.00000000000000	0.00000000000000	1.12849000000000	0.00000000000000	0.00000000000000	0.00000000000000	0.00000000000000	
2.50987000000000	38.17130000000000	554.99699999999996	-35.88590000000000	-0.19877000000000	-0.01739020000000	0.08382810000000	0.00000000000000	0.00000000000000	0.00000000000000	0.00000000000000	0.00000000000000	0.00000000000000	0.00000000000000	1.12924000000000	0.00000000000000	0.00000000000000	0.00000000000000	0.00000000000000	
2.51154000000000	38.61970000000000	558.45399999999995	-35.98760000000000	-0.20187800000000	-0.01766210000000	0.08403120000000	0.00000000000000	0.00000000000000	0.00000000000000	0.00000000000000	0.00000000000000	0.00000000000000	0.00000000000000	1.12855000000000	0.00000000000000	0.00000000000000	0.00000000000000	0.00000000000000	
2.51320000000000	39.06070000000000	561.97699999999998	-36.10960000000000	-0.20493300000000	-0.01792940000000	0.08423510000000	0.00000000000000	0.00000000000000	0.00000000000000	0.00000000000000	0.00000000000000	0.00000000000000	0.00000000000000	1.12648000000000	0.00000000000000	0.00000000000000	0.00000000000000	0.00000000000000	
2.51487000000000	39.49390000000000	565.56600000000003	-36.25200000000000	-0.20792900000000	-0.01819140000000	0.08443900000000	0.00000000000000	0.00000000000000	0.00000000000000	0.00000000000000	0.00000000000000	0.00000000000000	0.00000000000000	1.12313000000000	0.00000000000000	0.00000000000000	0.00000000000000	0.00000000000000	
2.51654000000000	39.91930000000000	569.22100000000000	-36.41480000000000	-0.21085700000000	-0.01844770000000	0.08464230000000	0.00000000000000	0.00000000000000	0.00000000000000	0.00000000000000	0.00000000000000	0.00000000000000	0.00000000000000	1.11858000000000	0.00000000000000	0.00000000000000	0.00000000000000	0.00000000000000	
2.51820000000000	40.33670000000000	572.94299999999998	-36.59800000000000	-0.21371300000000	-0.01869750000000	0.08484420000000	0.00000000000000	0.00000000000000	0.00000000000000	0.00000000000000	0.00000000000000	0.00000000000000	0.00000000000000	1.11290000000000	0.00000000000000	0.00000000000000	0.00000000000000	0.00000000000000	
2.51987000000000	40.74590000000000	576.73000000000002	-36.80160000000000	-0.21648800000000	-0.01894030000000	0.08504410000000	0.00000000000000	0.00000000000000	0.00000000000000	0.00000000000000	0.00000000000000	0.00000000000000	0.00000000000000	1.10619000000000	0.00000000000000	0.00000000000000	0.00000000000000	0.00000000000000	
